<?xml version="1.0" encoding="UTF-8" standalone="no"?>
<!-- Created with Inkscape (http://www.inkscape.org/) -->

<svg
   xmlns:dc="http://purl.org/dc/elements/1.1/"
   xmlns:cc="http://creativecommons.org/ns#"
   xmlns:rdf="http://www.w3.org/1999/02/22-rdf-syntax-ns#"
   xmlns:svg="http://www.w3.org/2000/svg"
   xmlns="http://www.w3.org/2000/svg"
   xmlns:sodipodi="http://sodipodi.sourceforge.net/DTD/sodipodi-0.dtd"
   xmlns:inkscape="http://www.inkscape.org/namespaces/inkscape"
   width="410.07257"
   height="384.34595"
   id="svg2"
   version="1.1"
   inkscape:version="0.48.2 r9819"
   sodipodi:docname="ibmrtc_logo.svg">
  <defs
     id="defs4" />
  <sodipodi:namedview
     id="base"
     pagecolor="#ffffff"
     bordercolor="#666666"
     borderopacity="1.0"
     inkscape:pageopacity="0.19607843"
     inkscape:pageshadow="2"
     inkscape:zoom="0.35"
     inkscape:cx="288.48288"
     inkscape:cy="237.28575"
     inkscape:document-units="px"
     inkscape:current-layer="layer1"
     showgrid="false"
     inkscape:window-width="1920"
     inkscape:window-height="1036"
     inkscape:window-x="0"
     inkscape:window-y="0"
     inkscape:window-maximized="1"
     fit-margin-top="0"
     fit-margin-left="0"
     fit-margin-right="0"
     fit-margin-bottom="0" />
  <metadata
     id="metadata7">
    <rdf:RDF>
      <cc:Work
         rdf:about="">
        <dc:format>image/svg+xml</dc:format>
        <dc:type
           rdf:resource="http://purl.org/dc/dcmitype/StillImage" />
        <dc:title></dc:title>
      </cc:Work>
    </rdf:RDF>
  </metadata>
  <g
     inkscape:label="Layer 1"
     inkscape:groupmode="layer"
     id="layer1"
     transform="translate(-140.18286,-228.15912)">
    <path
       sodipodi:type="arc"
       style="opacity:0.92672412;fill:#002255;fill-opacity:1;stroke-width:0.2;stroke-miterlimit:4;stroke-dasharray:none"
       id="path2991"
       sodipodi:cx="444.28571"
       sodipodi:cy="773.79077"
       sodipodi:rx="95.714287"
       sodipodi:ry="95.714287"
       d="m 539.99999,773.79077 c 0,52.86154 -42.85274,95.71429 -95.71428,95.71429 -52.86155,0 -95.71429,-42.85275 -95.71429,-95.71429 0,-52.86154 42.85274,-95.71429 95.71429,-95.71429 52.86154,0 95.71428,42.85275 95.71428,95.71429 z"
       transform="translate(-32.71429,-256.99999)" />
    <path
       style="fill:#0044aa;fill-opacity:1;stroke:#37abc8;stroke-width:0.2;stroke-miterlimit:4;stroke-dasharray:none"
       d="m 232.08036,293.51339 c -24.55723,0.2767 -48.77246,10.4908 -67.1875,30.46875 -46.4093,50.34815 -24.21015,132.44981 41.6875,154.15625 30.76736,10.13465 72.77639,-1.64115 96.09375,-26.9375 17.85807,-19.37372 23.64979,-34.8801 23.75,-63.5625 0.10958,-31.36348 -7.18548,-48.64037 -28.8125,-68.40625 -19.10625,-17.46204 -42.46234,-25.97868 -65.53125,-25.71875 z"
       id="path3070"
       inkscape:connector-curvature="0" />
    <path
       style="opacity:0.6853448;fill:#003380;fill-opacity:1;stroke:#003380;stroke-width:0.14285715;stroke-miterlimit:4;stroke-dasharray:none"
       d="m 337,417.50504 c 0,-0.39285 -1.04464,-0.71388 -2.32143,-0.71337 -3.78194,10e-4 -14.10714,-1.60084 -14.10714,-2.18923 0,-0.29879 -1.28572,-0.76048 -2.85715,-1.02597 -1.57142,-0.26549 -2.85714,-0.74383 -2.85714,-1.06297 0,-0.31914 -1.60714,-0.96581 -3.57143,-1.43703 -1.96428,-0.47122 -3.57143,-1.1206 -3.57143,-1.44306 0,-0.32246 -0.96428,-0.79808 -2.14285,-1.05694 -1.17857,-0.25886 -2.14286,-0.71509 -2.14286,-1.01386 0,-0.29875 -1.26894,-0.96199 -2.81987,-1.47384 -1.55094,-0.51186 -2.98728,-1.36687 -3.19187,-1.90004 -0.2046,-0.53317 -0.86423,-0.9694 -1.46584,-0.9694 -0.60162,0 -1.09385,-0.24297 -1.09385,-0.53992 0,-0.29696 -0.93339,-0.95308 -2.0742,-1.45805 -1.14081,-0.50497 -3.25298,-2.02987 -4.69372,-3.38865 -1.44073,-1.35879 -3.02445,-2.47052 -3.51938,-2.47052 -0.49493,0 -1.31099,-0.7682 -1.81348,-1.7071 -0.50248,-0.9389 -1.64642,-2.09928 -2.54208,-2.57862 -0.89565,-0.47934 -2.02065,-1.60434 -2.5,-2.5 -0.47934,-0.89566 -1.61521,-2.02648 -2.52416,-2.51293 -0.90895,-0.48646 -1.84165,-1.63756 -2.07267,-2.558 -0.23102,-0.92045 -1.0591,-2.01556 -1.84017,-2.43358 -0.78108,-0.41802 -1.42014,-1.23087 -1.42014,-1.80633 0,-0.57547 -0.28243,-1.0463 -0.62763,-1.0463 -0.34519,0 -1.02705,-0.96429 -1.51523,-2.14286 -0.48818,-1.17857 -1.17003,-2.14286 -1.51522,-2.14286 -0.3452,0 -0.62763,-0.46617 -0.62763,-1.03593 0,-0.56977 -0.43668,-1.29298 -0.9704,-1.60714 -0.53372,-0.31417 -1.36222,-1.77657 -1.84111,-3.24978 -0.47889,-1.47322 -1.14167,-2.67857 -1.47285,-2.67857 -0.33117,0 -0.81393,-0.96429 -1.07279,-2.14286 -0.25885,-1.17857 -0.7152,-2.14286 -1.0141,-2.14286 -0.29889,0 -0.96755,-1.76786 -1.4859,-3.92857 -0.51834,-2.16071 -1.18428,-3.92857 -1.47987,-3.92857 -0.29558,0 -0.76272,-1.36607 -1.0381,-3.03572 -0.27538,-1.66964 -0.74909,-3.35714 -1.05269,-3.75 C 253.33939,345.39295 252,334.47677 252,328.9629 c 0,-2.60896 -0.34944,-5.09301 -0.77652,-5.52009 -0.55918,-0.55918 -0.55918,-0.91086 0,-1.25645 0.43447,-0.26852 0.77652,-2.59337 0.77652,-5.27792 0,-5.91288 1.30981,-16.73887 2.0864,-17.24476 0.31485,-0.20511 0.79748,-1.89971 1.07251,-3.76578 0.27503,-1.86607 0.74102,-3.39286 1.03553,-3.39286 0.29452,0 0.94739,-1.60714 1.45082,-3.57143 0.50343,-1.96428 1.17128,-3.57142 1.48411,-3.57142 0.31283,0 0.77984,-1.125 1.03779,-2.5 0.25795,-1.375 0.71129,-2.5 1.00743,-2.5 0.29613,0 0.94523,-1.125 1.44244,-2.5 0.4972,-1.375 1.20463,-2.5 1.57206,-2.5 0.36743,0 0.66805,-0.4197 0.66805,-0.93266 0,-0.51296 0.72322,-1.92938 1.60714,-3.1476 0.88393,-1.21821 2.08929,-2.91778 2.67858,-3.77682 3.40635,-4.96564 11.42185,-13.7254 14.70601,-16.0715 1.09988,-0.78571 2.49098,-1.99107 3.09134,-2.67857 0.60036,-0.6875 1.50227,-1.25 2.00425,-1.25 0.50197,0 0.91268,-0.32938 0.91268,-0.73196 0,-0.40258 0.80357,-1.03748 1.78572,-1.41089 0.98214,-0.37341 1.78571,-1.00832 1.78571,-1.4109 0,-0.40258 0.43296,-0.73196 0.96214,-0.73196 0.52917,0 1.70335,-0.64286 2.60929,-1.42857 0.90593,-0.78572 2.03093,-1.42857 2.5,-1.42857 0.46906,0 1.59406,-0.64286 2.5,-1.42858 0.90593,-0.78571 2.08012,-1.42857 2.60929,-1.42857 0.52918,0 0.96214,-0.28937 0.96214,-0.64304 0,-0.35367 1.60714,-1.02859 3.57143,-1.49981 1.96428,-0.47123 3.57142,-1.11037 3.57142,-1.42033 0,-0.30995 1.20462,-0.78953 2.67694,-1.06574 1.47231,-0.27621 2.83877,-0.76406 3.03658,-1.08411 0.1978,-0.32005 3.49318,-1.00246 7.32306,-1.51645 3.82988,-0.51399 6.96342,-1.18692 6.96342,-1.49538 0,-0.76266 26.6825,-0.71726 27.53572,0.0469 0.37321,0.33423 3.49107,1.02889 6.92857,1.54367 3.4375,0.51478 6.25,1.17735 6.25,1.47237 0,0.29502 1.28571,0.75362 2.85714,1.01912 1.57143,0.26549 2.85715,0.74382 2.85715,1.06296 0,0.31915 1.60714,0.96581 3.57142,1.43704 1.96429,0.47122 3.57143,1.1206 3.57143,1.44306 0,0.32246 0.96429,0.79808 2.14286,1.05694 1.17857,0.25885 2.14286,0.73509 2.14286,1.0583 0,0.32321 0.97386,0.92715 2.16414,1.34208 1.19027,0.41494 2.62555,1.16959 3.18949,1.67702 1.83255,1.64888 2.82497,2.333 4.96504,3.4226 4.65456,2.36981 20.68878,18.48483 22.82619,22.9412 0.35468,0.73948 0.87819,1.34451 1.16334,1.34451 0.28517,0 0.94569,1.04464 1.46783,2.32143 0.52215,1.27678 1.36471,2.74617 1.87237,3.2653 0.50767,0.51914 0.92303,1.40307 0.92303,1.96429 0,0.56122 0.24296,1.02041 0.53992,1.02041 0.29695,0 0.96872,1.04464 1.4928,2.32143 1.53788,3.74655 3.28868,7.29399 3.7897,7.67857 0.2559,0.19643 0.86022,2.36607 1.34293,4.82143 0.48271,2.45535 1.13413,4.46428 1.44761,4.46428 0.31348,0 0.79729,1.84822 1.07513,4.10715 0.27785,2.25892 0.86348,4.33648 1.3014,4.61679 1.12336,0.71904 1.11311,31.84215 -0.0107,32.55205 -0.44382,0.28035 -1.03788,2.51866 -1.32012,4.97401 -0.28225,2.45536 -0.75913,4.46429 -1.05973,4.46429 -0.30061,0 -0.95582,1.92857 -1.45605,4.28571 -0.50022,2.35715 -1.15122,4.28572 -1.44667,4.28572 -0.29546,0 -0.74825,1.125 -1.0062,2.5 -0.25795,1.375 -0.72499,2.5 -1.03786,2.5 -0.31287,0 -0.9694,1.33691 -1.45897,2.97093 -0.48956,1.634 -1.26365,3.3907 -1.7202,3.90377 -1.83482,2.06198 -2.35029,2.8627 -3.24332,5.03825 -0.51253,1.24856 -1.38457,2.44383 -1.93789,2.65616 -0.55334,0.21233 -1.00605,0.87828 -1.00605,1.4799 0,0.60162 -0.26711,1.09384 -0.59359,1.09384 -0.32647,0 -1.04968,0.85613 -1.60714,1.90252 -1.19323,2.23978 -12.06098,13.25539 -16.07891,16.29766 -4.03647,3.05632 -4.53297,3.45238 -6.0391,4.81737 -0.74757,0.6775 -2.1477,1.42973 -3.11141,1.6716 -0.96371,0.24188 -1.91445,0.8626 -2.11276,1.37939 -0.19831,0.51679 -1.34657,1.15618 -2.55168,1.42086 -1.20512,0.26469 -2.19112,0.77715 -2.19112,1.13879 0,0.36164 -0.45919,0.65753 -1.02041,0.65753 -0.56123,0 -1.44516,0.42028 -1.96429,0.93395 -0.51913,0.51368 -2.55102,1.36713 -4.5153,1.89656 -1.96429,0.52942 -3.89286,1.19702 -4.28572,1.48356 -0.39286,0.28653 -1.83928,0.75918 -3.21428,1.05033 -1.375,0.29115 -2.66833,0.79201 -2.87405,1.11304 -0.20572,0.32102 -3.82179,0.99319 -8.03571,1.49369 -4.21392,0.5005 -7.66167,1.16175 -7.66167,1.46943 0,0.3077 -4.17857,0.55944 -9.28572,0.55944 -5.71428,0 -9.28571,-0.27473 -9.28571,-0.71429 z"
       id="path3075"
       inkscape:connector-curvature="0" />
    <path
       style="opacity:0.78448277;fill:#5f8dd3;fill-opacity:1;stroke:#003380;stroke-width:0.14285715;stroke-miterlimit:4;stroke-dasharray:none"
       d="m 261.14286,611.50504 c 0,-0.39286 -1.04464,-0.71388 -2.32143,-0.71337 -3.78194,0.001 -14.10714,-1.60084 -14.10714,-2.18923 0,-0.29879 -1.28572,-0.76048 -2.85715,-1.02597 C 240.28572,607.31098 239,606.83264 239,606.5135 c 0,-0.31915 -1.60714,-0.96581 -3.57143,-1.43703 -1.96428,-0.47122 -3.57143,-1.1206 -3.57143,-1.44307 0,-0.32245 -0.96428,-0.79807 -2.14285,-1.05693 -1.17857,-0.25886 -2.14286,-0.71509 -2.14286,-1.01386 0,-0.29876 -1.26894,-0.96199 -2.81987,-1.47384 -1.55094,-0.51186 -2.98728,-1.36687 -3.19187,-1.90004 -0.2046,-0.53318 -0.86423,-0.9694 -1.46584,-0.9694 -0.60162,0 -1.09385,-0.24297 -1.09385,-0.53993 0,-0.29695 -0.93339,-0.95307 -2.0742,-1.45805 -1.14081,-0.50497 -3.25298,-2.02986 -4.69372,-3.38865 -1.44073,-1.35878 -3.02445,-2.47052 -3.51938,-2.47052 -0.49493,0 -1.31099,-0.76819 -1.81348,-1.70709 -0.50248,-0.9389 -1.64642,-2.09928 -2.54208,-2.57862 -0.89565,-0.47934 -2.02065,-1.60434 -2.5,-2.5 -0.47934,-0.89566 -1.61521,-2.02648 -2.52416,-2.51294 -0.90895,-0.48645 -1.84165,-1.63755 -2.07267,-2.558 -0.23102,-0.92045 -1.0591,-2.01555 -1.84017,-2.43358 C 194.63906,574.65393 194,573.84109 194,573.26563 c 0,-0.57547 -0.28243,-1.0463 -0.62763,-1.0463 -0.34519,0 -1.02705,-0.96429 -1.51523,-2.14286 -0.48818,-1.17857 -1.17003,-2.14286 -1.51522,-2.14286 -0.3452,0 -0.62763,-0.46617 -0.62763,-1.03593 0,-0.56977 -0.43668,-1.29298 -0.9704,-1.60715 -0.53372,-0.31416 -1.36222,-1.77656 -1.84111,-3.24978 -0.47889,-1.47321 -1.14167,-2.67857 -1.47285,-2.67857 -0.33117,0 -0.81393,-0.96428 -1.07279,-2.14285 -0.25885,-1.17858 -0.7152,-2.14286 -1.0141,-2.14286 -0.29889,0 -0.96755,-1.76786 -1.4859,-3.92857 -0.51834,-2.16072 -1.18428,-3.92857 -1.47987,-3.92857 -0.29558,0 -0.76272,-1.36608 -1.0381,-3.03572 -0.27538,-1.66964 -0.74909,-3.35714 -1.05269,-3.75 -0.80423,-1.04066 -2.14362,-11.95684 -2.14362,-17.47071 0,-2.60897 -0.34944,-5.09301 -0.77652,-5.5201 -0.55918,-0.55917 -0.55918,-0.91085 0,-1.25644 0.43447,-0.26852 0.77652,-2.59338 0.77652,-5.27793 0,-5.91287 1.30981,-16.73886 2.08639,-17.24475 0.31486,-0.20511 0.79749,-1.89971 1.07252,-3.76578 0.27503,-1.86607 0.74102,-3.39286 1.03553,-3.39286 0.29452,0 0.94739,-1.60714 1.45082,-3.57143 0.50343,-1.96428 1.17128,-3.57143 1.48411,-3.57143 0.31283,0 0.77984,-1.125 1.03779,-2.5 0.25795,-1.375 0.71129,-2.5 1.00743,-2.5 0.29613,0 0.94523,-1.125 1.44244,-2.5 0.4972,-1.375 1.20463,-2.5 1.57206,-2.5 0.36743,0 0.66805,-0.41969 0.66805,-0.93265 0,-0.51297 0.72322,-1.92938 1.60714,-3.1476 0.88393,-1.21822 2.08929,-2.91779 2.67858,-3.77682 3.40635,-4.96565 11.42185,-13.7254 14.70601,-16.0715 1.09988,-0.78571 2.49098,-1.99107 3.09134,-2.67857 0.60036,-0.6875 1.50227,-1.25 2.00425,-1.25 0.50197,0 0.91268,-0.32938 0.91268,-0.73196 0,-0.40259 0.80357,-1.03749 1.78572,-1.4109 0.98214,-0.37341 1.78571,-1.00831 1.78571,-1.41089 0,-0.40258 0.43296,-0.73196 0.96214,-0.73196 0.52917,0 1.70335,-0.64286 2.60929,-1.42858 0.90593,-0.78571 2.03093,-1.42857 2.5,-1.42857 0.46906,0 1.59406,-0.64285 2.5,-1.42857 0.90593,-0.78571 2.08012,-1.42857 2.60929,-1.42857 0.52918,0 0.96214,-0.28937 0.96214,-0.64304 0,-0.35368 1.60714,-1.02859 3.57143,-1.49982 1.96428,-0.47122 3.57142,-1.11037 3.57142,-1.42032 0,-0.30995 1.20462,-0.78954 2.67694,-1.06574 1.47231,-0.27621 2.83877,-0.76406 3.03658,-1.08411 0.1978,-0.32006 3.49318,-1.00246 7.32306,-1.51645 3.82988,-0.514 6.96342,-1.18692 6.96342,-1.49539 0,-0.76265 26.6825,-0.71725 27.53572,0.0469 0.37321,0.33423 3.49107,1.02888 6.92857,1.54367 3.4375,0.51478 6.25,1.17735 6.25,1.47237 0,0.29502 1.28571,0.75362 2.85714,1.01911 1.57143,0.26549 2.85715,0.74383 2.85715,1.06297 0,0.31914 1.60714,0.96581 3.57142,1.43703 1.96429,0.47123 3.57143,1.1206 3.57143,1.44306 0,0.32246 0.96429,0.79808 2.14286,1.05694 1.17857,0.25886 2.14286,0.70197 2.14286,0.98469 0,0.28273 1.125,0.92085 2.5,1.41806 1.375,0.4972 2.5,1.20463 2.5,1.57206 0,0.36743 0.46617,0.66805 1.03593,0.66805 0.56977,0 1.29298,0.40231 1.60715,0.89402 0.31416,0.49171 1.5329,1.37564 2.70832,1.96429 1.1754,0.58864 2.8194,1.79348 3.65333,2.6774 0.83392,0.88393 1.77667,1.60715 2.09499,1.60715 0.31832,0 3.17432,2.72061 6.34666,6.0458 7.80167,8.17755 9.50777,10.1241 10.50227,11.98234 0.46663,0.87188 1.19942,1.9825 1.62845,2.46804 1.9956,2.25851 2.44171,2.98794 3.33031,5.4453 0.52305,1.44647 1.20786,2.62995 1.52179,2.62995 0.31394,0 0.5708,0.37647 0.5708,0.83661 0,0.46014 0.42503,1.34407 0.9445,1.96429 0.51949,0.62022 1.3745,2.49374 1.90005,4.16338 0.52554,1.66964 1.19726,3.03572 1.4927,3.03572 0.29545,0 0.76551,1.36607 1.04458,3.03571 0.27907,1.66964 0.77884,3.20883 1.11059,3.42041 0.33176,0.21159 1.00371,2.78302 1.49323,5.71429 0.48953,2.93127 1.22337,5.55893 1.63077,5.83924 1.02745,0.70692 1.01248,31.85917 -0.0156,32.55205 -0.416,0.28035 -1.14505,3.06579 -1.6201,6.18987 -0.47506,3.12408 -1.14984,5.85695 -1.49951,6.07306 -0.34967,0.21611 -0.86176,1.59754 -1.13797,3.06986 -0.2762,1.47231 -0.72708,2.67693 -1.00195,2.67693 -0.27486,0 -0.91165,1.60715 -1.41508,3.57143 -0.50344,1.96429 -1.18152,3.57143 -1.50686,3.57143 -0.32533,0 -0.80331,0.96429 -1.06217,2.14286 -0.25886,1.17857 -0.72754,2.14286 -1.04152,2.14286 -0.31399,0 -0.99978,1.04464 -1.52399,2.32142 -1.03083,2.51074 -1.74853,3.56018 -3.68449,5.38758 -0.6875,0.64895 -1.25,1.59377 -1.25,2.09959 0,0.50582 -0.64286,1.47011 -1.42857,2.14286 -0.78572,0.67275 -1.42857,1.4687 -1.42857,1.7688 0,0.30009 -3.29465,3.74272 -7.32143,7.65029 -9.78659,9.49684 -10.6909,10.28826 -12.91211,11.30031 -1.05013,0.47847 -1.90932,1.17273 -1.90932,1.5428 0,0.37006 -0.93744,0.87873 -2.08319,1.13038 -1.14575,0.25165 -2.24903,0.88974 -2.45173,1.41797 -0.2027,0.52824 -1.35456,1.177 -2.55967,1.44168 -1.20512,0.26469 -2.19112,0.77102 -2.19112,1.12517 0,0.35416 -0.80358,0.84561 -1.78572,1.09212 -0.98214,0.2465 -1.78571,0.68343 -1.78571,0.97095 0,0.28753 -1.76786,0.94687 -3.92857,1.46522 -2.16072,0.51835 -3.92858,1.17604 -3.92858,1.46155 0,0.28551 -1.44642,0.73601 -3.21428,1.00111 -1.76786,0.26511 -3.21429,0.74467 -3.21429,1.0657 0,0.6441 -9.3412,2.18592 -13.24346,2.18592 -1.35895,0 -2.47082,0.32143 -2.47082,0.71429 0,0.43956 -3.57143,0.71429 -9.28572,0.71429 -5.71428,0 -9.28571,-0.27473 -9.28571,-0.71429 z"
       id="path3077"
       inkscape:connector-curvature="0" />
    <path
       style="opacity:0.52155175;fill:#afc6e9;fill-opacity:1"
       d="m 446.28571,482.79078 c 0,-0.3929 -1.04464,-0.7139 -2.32142,-0.7134 -3.78194,0 -14.10715,-1.6008 -14.10715,-2.1892 0,-0.2988 -1.28571,-0.7605 -2.85714,-1.026 -1.57143,-0.2655 -2.85714,-0.7151 -2.85714,-0.9992 0,-0.284 -1.60715,-0.9283 -3.57143,-1.4318 -1.96429,-0.5034 -3.57143,-1.1815 -3.57143,-1.5068 0,-0.3254 -0.96429,-0.8033 -2.14286,-1.0622 -1.17857,-0.2588 -2.14285,-0.7151 -2.14285,-1.0138 0,-0.2988 -1.26895,-0.962 -2.81988,-1.4739 -1.55093,-0.5118 -2.98727,-1.3669 -3.19187,-1.9 -0.20459,-0.5332 -0.86422,-0.9694 -1.46584,-0.9694 -0.60161,0 -1.09384,-0.243 -1.09384,-0.54 0,-0.2969 -0.93339,-0.95303 -2.0742,-1.458 -1.14081,-0.50497 -3.25299,-2.02987 -4.69372,-3.38865 -1.44073,-1.35879 -3.02446,-2.47052 -3.51938,-2.47052 -0.49493,0 -1.311,-0.7682 -1.81348,-1.7071 -0.50249,-0.9389 -1.64642,-2.09928 -2.54208,-2.57862 -0.89566,-0.47934 -2.02066,-1.60434 -2.5,-2.5 -0.47934,-0.89566 -1.61522,-2.02648 -2.52417,-2.51293 -0.90895,-0.48646 -1.84165,-1.63756 -2.07267,-2.558 -0.23101,-0.92045 -1.05909,-2.01556 -1.84016,-2.43358 -0.78108,-0.41802 -1.42014,-1.23087 -1.42014,-1.80633 0,-0.57547 -0.28244,-1.0463 -0.62763,-1.0463 -0.3452,0 -1.02705,-0.96429 -1.51523,-2.14286 -0.48818,-1.17857 -1.17003,-2.14286 -1.51523,-2.14286 -0.34519,0 -0.62763,-0.46617 -0.62763,-1.03593 0,-0.56977 -0.43668,-1.29298 -0.9704,-1.60714 -0.53372,-0.31417 -1.36222,-1.77657 -1.84111,-3.24978 -0.47889,-1.47322 -1.14167,-2.67857 -1.47284,-2.67857 -0.33118,0 -0.81393,-0.96429 -1.07279,-2.14286 -0.25886,-1.17857 -0.7152,-2.14286 -1.0141,-2.14286 -0.2989,0 -0.96755,-1.76786 -1.4859,-3.92857 -0.51835,-2.16071 -1.18429,-3.92857 -1.47987,-3.92857 -0.29558,0 -0.76273,-1.36607 -1.03811,-3.03572 -0.27537,-1.66964 -0.74368,-3.35714 -1.04067,-3.75 -0.86725,-1.14718 -2.15564,-11.38539 -2.15564,-17.12987 0,-3.03582 -0.33054,-5.4901 -0.77652,-5.76573 -0.55917,-0.34559 -0.55917,-0.69727 0,-1.25645 0.42709,-0.42708 0.77652,-2.89031 0.77652,-5.47382 0,-5.8302 1.31579,-16.64206 2.0864,-17.14406 0.31486,-0.20511 0.79749,-1.89971 1.07252,-3.76578 0.27502,-1.86607 0.74101,-3.39286 1.03553,-3.39286 0.29452,0 0.94738,-1.60714 1.45081,-3.57143 0.50343,-1.96428 1.17129,-3.57142 1.48412,-3.57142 0.31283,0 0.77983,-1.125 1.03778,-2.5 0.25795,-1.375 0.7113,-2.5 1.00743,-2.5 0.29614,0 0.94524,-1.125 1.44244,-2.5 0.49721,-1.375 1.20464,-2.5 1.57207,-2.5 0.36742,0 0.66805,-0.4197 0.66805,-0.93266 0,-0.51296 0.72321,-1.92938 1.60714,-3.1476 0.88393,-1.21821 2.08929,-2.91778 2.67857,-3.77682 3.40636,-4.96564 11.42186,-13.7254 14.70602,-16.0715 1.09987,-0.78571 2.49097,-1.99107 3.09133,-2.67857 0.60036,-0.6875 1.34156,-1.25 1.64711,-1.25 0.30555,0 1.17536,-0.5625 1.93292,-1.25 2.51686,-2.28411 3.5561,-3.03571 4.19747,-3.03571 0.34932,0 1.37636,-0.64286 2.28229,-1.42857 0.90594,-0.78572 2.03094,-1.42857 2.5,-1.42857 0.46907,0 1.59407,-0.64286 2.5,-1.42858 0.90594,-0.78571 2.08012,-1.42857 2.6093,-1.42857 0.52917,0 0.96213,-0.28937 0.96213,-0.64304 0,-0.35367 1.60715,-1.02859 3.57143,-1.49981 1.96429,-0.47123 3.57143,-1.11037 3.57143,-1.42033 0,-0.30995 1.20462,-0.78953 2.67693,-1.06574 1.47232,-0.27621 2.83878,-0.76406 3.03658,-1.08411 0.19781,-0.32005 3.49318,-1.00246 7.32307,-1.51645 3.82988,-0.51399 6.96342,-1.18692 6.96342,-1.49538 0,-0.76266 26.68249,-0.71726 27.53571,0.0468 0.37322,0.33423 3.49108,1.02889 6.92858,1.54367 3.4375,0.51478 6.25,1.17735 6.25,1.47237 0,0.29502 1.28571,0.75362 2.85714,1.01912 1.57143,0.26549 2.85714,0.74382 2.85714,1.06297 0,0.31914 1.60714,0.9658 3.57143,1.43703 1.96429,0.47122 3.57143,1.1206 3.57143,1.44306 0,0.32246 0.96428,0.79808 2.14286,1.05694 1.17857,0.25885 2.14285,0.73509 2.14285,1.0583 0,0.32321 0.97387,0.92715 2.16415,1.34208 1.19027,0.41494 2.62555,1.16959 3.18949,1.67702 1.83254,1.64888 2.82496,2.333 4.96503,3.4226 4.65456,2.36982 20.68879,18.48483 22.8262,22.9412 0.35468,0.73948 0.87818,1.34451 1.16334,1.34451 0.28516,0 0.94569,1.04464 1.46783,2.32143 0.52214,1.27678 1.36471,2.74617 1.87237,3.26531 0.50766,0.51913 0.92302,1.40306 0.92302,1.96428 0,0.56123 0.24297,1.02041 0.53992,1.02041 0.29696,0 0.96872,1.04464 1.49281,2.32143 1.53787,3.74655 3.28868,7.294 3.78969,7.67857 0.2559,0.19643 0.86022,2.36607 1.34293,4.82143 0.48272,2.45535 1.13414,4.46428 1.44762,4.46428 0.31347,0 0.79728,1.84822 1.07512,4.10715 0.27785,2.25892 0.86348,4.33648 1.3014,4.61679 1.12337,0.71904 1.11311,31.84215 -0.0107,32.55205 -0.44382,0.28035 -1.03789,2.51866 -1.32013,4.97401 -0.28225,2.45536 -0.75913,4.46429 -1.05973,4.46429 -0.3006,0 -0.95582,1.92857 -1.45604,4.28571 -0.50022,2.35715 -1.15123,4.28572 -1.44668,4.28572 -0.29546,0 -0.74824,1.125 -1.00619,2.5 -0.25795,1.375 -0.72499,2.5 -1.03787,2.5 -0.31287,0 -0.9694,1.33691 -1.45896,2.97093 -0.48956,1.634 -1.26366,3.3907 -1.72021,3.90377 -1.83482,2.06198 -2.35028,2.8627 -3.24332,5.03825 -0.51252,1.24856 -1.38456,2.44383 -1.93788,2.65616 -0.55334,0.21233 -1.00605,0.87828 -1.00605,1.4799 0,0.60162 -0.26712,1.09384 -0.59359,1.09384 -0.32647,0 -1.04969,0.85613 -1.60714,1.90252 -1.19324,2.23978 -12.06099,13.25539 -16.07891,16.29766 -4.03648,3.05632 -4.53297,3.45238 -6.03911,4.81737 -0.74756,0.67745 -2.14769,1.42965 -3.1114,1.67155 -0.96371,0.2419 -1.91445,0.8626 -2.11276,1.3794 -0.19832,0.5168 -1.34657,1.1562 -2.55169,1.4209 -1.20511,0.2646 -2.19112,0.7771 -2.19112,1.1387 0,0.3617 -0.45918,0.6576 -1.02041,0.6576 -0.56122,0 -1.44515,0.4202 -1.96428,0.9339 -0.51914,0.5137 -2.55102,1.3671 -4.51531,1.8966 -1.96428,0.5294 -3.89286,1.197 -4.28571,1.4835 -0.39286,0.2866 -1.83929,0.7592 -3.21429,1.0504 -1.375,0.2911 -2.66832,0.792 -2.87404,1.113 -0.20572,0.3211 -3.82179,0.9933 -8.03572,1.4937 -4.21392,0.5005 -7.66167,1.1617 -7.66167,1.4694 0,0.3077 -4.17857,0.5595 -9.28571,0.5595 -5.71429,0 -9.28572,-0.2748 -9.28572,-0.7143 z"
       id="path3079"
       inkscape:connector-curvature="0" />
    <g
       id="g3915"
       transform="translate(-4.2857143,8.5714289)">
      <path
         id="rect3910"
         d="m 273.57143,333.07645 148.57143,0 c 24.53429,0 44.28571,19.75142 44.28571,44.28571 l 0,84.28572 c 0,24.53429 -19.75142,44.28571 -44.28571,44.28571 l -148.57143,0 c -24.53428,0 -44.28571,-19.75142 -44.28571,-44.28571 l 0,-84.28572 c 0,-24.53429 19.75143,-44.28571 44.28571,-44.28571 z"
         style="fill:#ffffff;fill-opacity:1"
         inkscape:connector-curvature="0" />
      <path
         inkscape:connector-curvature="0"
         id="path3913"
         d="m 280,493.79075 c -26.42857,66.42857 -30,75.71429 -30,75.71429 l 0,0 91.42857,-69.28572 0,0 z"
         style="fill:#ffffff;stroke:none" />
    </g>
  </g>
</svg>
